<?xml version="1.0" encoding="UTF-8" standalone="no"?>
<!DOCTYPE svg PUBLIC "-//W3C//DTD SVG 1.1//EN"
 "http://www.w3.org/Graphics/SVG/1.1/DTD/svg11.dtd">
<!-- Generated by graphviz version 7.0.4 (20221203.1631)
 -->
<!-- Title: G Pages: 1 -->
<svg width="764pt" height="103pt"
 viewBox="0.00 0.00 764.00 103.21" xmlns="http://www.w3.org/2000/svg" xmlns:xlink="http://www.w3.org/1999/xlink">
<g id="graph0" class="graph" transform="scale(1 1) rotate(0) translate(4 99.21)">
<title>G</title>
<polygon fill="white" stroke="none" points="-4,4 -4,-99.21 760,-99.21 760,4 -4,4"/>
<!-- sandbox/di/cmd -->
<g id="node1" class="node">
<title>sandbox/di/cmd</title>
<g id="a_node1"><a xlink:href="https://pkg.go.dev/sandbox/di/cmd" xlink:title="sandbox/di/cmd\l16 / 261B\l" target="_graphviz">
<polygon fill="none" stroke="#799107" stroke-width="2" stroke-opacity="0.698039" points="108,-53.21 0,-53.21 0,-17.21 108,-17.21 108,-53.21"/>
<text text-anchor="start" x="8" y="-38.21" font-family="Times,serif" font-size="10.00">sandbox/di/cmd</text>
<text text-anchor="start" x="8" y="-27.21" font-family="Times,serif" font-size="10.00">16 / 261B</text>
</a>
</g>
</g>
<!-- sandbox/di/service1 -->
<g id="node2" class="node">
<title>sandbox/di/service1</title>
<g id="a_node2"><a xlink:href="https://pkg.go.dev/sandbox/di/service1" xlink:title="sandbox/di/service1\l56 / 1.0KB\l" target="_graphviz">
<polygon fill="none" stroke="#917c07" stroke-width="2" stroke-opacity="0.698039" points="324,-53.21 216,-53.21 216,-17.21 324,-17.21 324,-53.21"/>
<text text-anchor="start" x="224" y="-38.21" font-family="Times,serif" font-size="10.00">sandbox/di/service1</text>
<text text-anchor="start" x="224" y="-27.21" font-family="Times,serif" font-size="10.00">56 / 1.0KB</text>
</a>
</g>
</g>
<!-- sandbox/di/cmd&#45;&gt;sandbox/di/service1 -->
<g id="edge1" class="edge">
<title>sandbox/di/cmd:e&#45;&gt;sandbox/di/service1</title>
<path fill="none" stroke="#917c07" stroke-width="2" stroke-opacity="0.698039" d="M108,-35.21C139.03,-35.21 173.42,-35.21 202.42,-35.21"/>
<polygon fill="#917c07" fill-opacity="0.698039" stroke="#917c07" stroke-width="2" stroke-opacity="0.698039" points="202.31,-38.71 212.31,-35.21 202.31,-31.71 202.31,-38.71"/>
</g>
<!-- sandbox/di/service2 -->
<g id="node3" class="node">
<title>sandbox/di/service2</title>
<g id="a_node3"><a xlink:href="https://pkg.go.dev/sandbox/di/service2" xlink:title="sandbox/di/service2\l35 / 625B\l" target="_graphviz">
<polygon fill="none" stroke="#07914d" stroke-width="2" stroke-opacity="0.698039" points="540,-95.21 432,-95.21 432,-59.21 540,-59.21 540,-95.21"/>
<text text-anchor="start" x="440" y="-80.21" font-family="Times,serif" font-size="10.00">sandbox/di/service2</text>
<text text-anchor="start" x="440" y="-69.21" font-family="Times,serif" font-size="10.00">35 / 625B</text>
</a>
</g>
</g>
<!-- sandbox/di/cmd&#45;&gt;sandbox/di/service2 -->
<g id="edge2" class="edge">
<title>sandbox/di/cmd:e&#45;&gt;sandbox/di/service2</title>
<path fill="none" stroke="#07914d" stroke-width="2" stroke-opacity="0.698039" d="M108,-35.21C157.48,-35.21 167.08,-54.8 216,-62.21 284.36,-72.56 363.46,-75.96 418.1,-76.98"/>
<polygon fill="#07914d" fill-opacity="0.698039" stroke="#07914d" stroke-width="2" stroke-opacity="0.698039" points="418.02,-80.48 428.08,-77.14 418.13,-73.48 418.02,-80.48"/>
</g>
<!-- sandbox/di/service3 -->
<g id="node4" class="node">
<title>sandbox/di/service3</title>
<g id="a_node4"><a xlink:href="https://pkg.go.dev/sandbox/di/service3" xlink:title="sandbox/di/service3\l35 / 597B\l" target="_graphviz">
<polygon fill="none" stroke="#913107" stroke-width="2" stroke-opacity="0.698039" points="756,-49.21 648,-49.21 648,-13.21 756,-13.21 756,-49.21"/>
<text text-anchor="start" x="656" y="-34.21" font-family="Times,serif" font-size="10.00">sandbox/di/service3</text>
<text text-anchor="start" x="656" y="-23.21" font-family="Times,serif" font-size="10.00">35 / 597B</text>
</a>
</g>
</g>
<!-- sandbox/di/cmd&#45;&gt;sandbox/di/service3 -->
<g id="edge3" class="edge">
<title>sandbox/di/cmd:e&#45;&gt;sandbox/di/service3</title>
<path fill="none" stroke="#913107" stroke-width="2" stroke-opacity="0.698039" d="M108,-35.21C157.48,-35.21 166.89,-14.25 216,-8.21 364.83,10.12 541,-8.13 634.65,-20.97"/>
<polygon fill="#913107" fill-opacity="0.698039" stroke="#913107" stroke-width="2" stroke-opacity="0.698039" points="633.92,-24.4 644.31,-22.32 634.89,-17.47 633.92,-24.4"/>
</g>
<!-- sandbox/di/service1&#45;&gt;sandbox/di/service2 -->
<g id="edge4" class="edge">
<title>sandbox/di/service1:e&#45;&gt;sandbox/di/service2</title>
<path fill="none" stroke="#07914d" stroke-width="2" stroke-opacity="0.698039" d="M324,-35.21C358.66,-35.21 396.19,-44.43 426.29,-54.23"/>
<polygon fill="#07914d" fill-opacity="0.698039" stroke="#07914d" stroke-width="2" stroke-opacity="0.698039" points="424.82,-57.43 435.42,-57.32 427.07,-50.8 424.82,-57.43"/>
</g>
<!-- sandbox/di/service1&#45;&gt;sandbox/di/service3 -->
<g id="edge5" class="edge">
<title>sandbox/di/service1:e&#45;&gt;sandbox/di/service3</title>
<path fill="none" stroke="#913107" stroke-width="2" stroke-opacity="0.698039" d="M324,-35.21C432.68,-35.21 558.96,-33.52 634.31,-32.34"/>
<polygon fill="#913107" fill-opacity="0.698039" stroke="#913107" stroke-width="2" stroke-opacity="0.698039" points="634.34,-35.84 644.28,-32.18 634.23,-28.84 634.34,-35.84"/>
</g>
<!-- sandbox/di/service2&#45;&gt;sandbox/di/service3 -->
<g id="edge6" class="edge">
<title>sandbox/di/service2:e&#45;&gt;sandbox/di/service3</title>
<path fill="none" stroke="#913107" stroke-width="2" stroke-opacity="0.698039" d="M540,-77.21C576.54,-77.21 616,-66.12 646.72,-54.83"/>
<polygon fill="#913107" fill-opacity="0.698039" stroke="#913107" stroke-width="2" stroke-opacity="0.698039" points="647.96,-58.1 656.06,-51.26 645.47,-51.56 647.96,-58.1"/>
</g>
</g>
</svg>
