<?xml version="1.0" encoding="UTF-8" standalone="no"?>
<!DOCTYPE svg PUBLIC "-//W3C//DTD SVG 1.1//EN"
 "http://www.w3.org/Graphics/SVG/1.1/DTD/svg11.dtd">
<!-- Generated by graphviz version 7.0.4 (20221203.1631)
 -->
<!-- Title: G Pages: 1 -->
<svg width="770pt" height="117pt"
 viewBox="0.00 0.00 769.93 116.94" xmlns="http://www.w3.org/2000/svg" xmlns:xlink="http://www.w3.org/1999/xlink">
<g id="graph0" class="graph" transform="scale(1 1) rotate(0) translate(4 112.94)">
<title>G</title>
<polygon fill="white" stroke="none" points="-4,4 -4,-112.94 765.93,-112.94 765.93,4 -4,4"/>
<!-- sandbox/di/cmd -->
<g id="node1" class="node">
<title>sandbox/di/cmd</title>
<g id="a_node1"><a xlink:href="https://pkg.go.dev/sandbox/di/cmd" xlink:title="sandbox/di/cmd\l16 / 261B\l" target="_graphviz">
<polygon fill="none" stroke="#799107" stroke-width="2" stroke-opacity="0.698039" points="108,-51.09 0,-51.09 0,-15.09 108,-15.09 108,-51.09"/>
<text text-anchor="start" x="8" y="-36.09" font-family="Times,serif" font-size="10.00">sandbox/di/cmd</text>
<text text-anchor="start" x="8" y="-25.09" font-family="Times,serif" font-size="10.00">16 / 261B</text>
</a>
</g>
</g>
<!-- sandbox/di/service1 -->
<g id="node2" class="node">
<title>sandbox/di/service1</title>
<g id="a_node2"><a xlink:href="https://pkg.go.dev/sandbox/di/service1" xlink:title="sandbox/di/service1\l56 / 1.0KB\l" target="_graphviz">
<polygon fill="none" stroke="#917c07" stroke-width="2" stroke-opacity="0.698039" points="324,-51.09 216,-51.09 216,-15.09 324,-15.09 324,-51.09"/>
<text text-anchor="start" x="224" y="-36.09" font-family="Times,serif" font-size="10.00">sandbox/di/service1</text>
<text text-anchor="start" x="224" y="-25.09" font-family="Times,serif" font-size="10.00">56 / 1.0KB</text>
</a>
</g>
</g>
<!-- sandbox/di/cmd&#45;&gt;sandbox/di/service1 -->
<g id="edge1" class="edge">
<title>sandbox/di/cmd:e&#45;&gt;sandbox/di/service1</title>
<path fill="none" stroke="#917c07" stroke-width="2" stroke-opacity="0.698039" d="M108,-33.09C139.03,-33.09 173.42,-33.09 202.42,-33.09"/>
<polygon fill="#917c07" fill-opacity="0.698039" stroke="#917c07" stroke-width="2" stroke-opacity="0.698039" points="202.31,-36.59 212.31,-33.09 202.31,-29.59 202.31,-36.59"/>
</g>
<!-- sandbox/di/service2 -->
<g id="node3" class="node">
<title>sandbox/di/service2</title>
<g id="a_node3"><a xlink:href="https://pkg.go.dev/sandbox/di/service2" xlink:title="sandbox/di/service2\l35 / 625B\l" target="_graphviz">
<polygon fill="none" stroke="#07914d" stroke-width="2" stroke-opacity="0.698039" points="540,-93.09 432,-93.09 432,-57.09 540,-57.09 540,-93.09"/>
<text text-anchor="start" x="440" y="-78.09" font-family="Times,serif" font-size="10.00">sandbox/di/service2</text>
<text text-anchor="start" x="440" y="-67.09" font-family="Times,serif" font-size="10.00">35 / 625B</text>
</a>
</g>
</g>
<!-- sandbox/di/cmd&#45;&gt;sandbox/di/service2 -->
<g id="edge2" class="edge">
<title>sandbox/di/cmd:e&#45;&gt;sandbox/di/service2</title>
<path fill="none" stroke="#07914d" stroke-width="2" stroke-opacity="0.698039" d="M108,-33.09C157.48,-33.09 167.08,-52.68 216,-60.09 284.36,-70.44 363.46,-73.84 418.1,-74.86"/>
<polygon fill="#07914d" fill-opacity="0.698039" stroke="#07914d" stroke-width="2" stroke-opacity="0.698039" points="418.02,-78.36 428.08,-75.02 418.13,-71.36 418.02,-78.36"/>
</g>
<!-- sandbox/di/service3 -->
<g id="node4" class="node">
<title>sandbox/di/service3</title>
<g id="a_node4"><a xlink:href="https://pkg.go.dev/sandbox/di/service3" xlink:title="sandbox/di/service3\l35 / 597B\l" target="_graphviz">
<polygon fill="none" stroke="#913107" stroke-width="2" stroke-opacity="0.698039" points="756,-70.09 648,-70.09 648,-34.09 756,-34.09 756,-70.09"/>
<text text-anchor="start" x="656" y="-55.09" font-family="Times,serif" font-size="10.00">sandbox/di/service3</text>
<text text-anchor="start" x="656" y="-44.09" font-family="Times,serif" font-size="10.00">35 / 597B</text>
</a>
</g>
</g>
<!-- sandbox/di/cmd&#45;&gt;sandbox/di/service3 -->
<g id="edge3" class="edge">
<title>sandbox/di/cmd:e&#45;&gt;sandbox/di/service3</title>
<path fill="none" stroke="#913107" stroke-width="2" stroke-opacity="0.698039" d="M108,-33.09C157.48,-33.09 166.89,-12.13 216,-6.09 359.35,11.56 396.65,-13.45 540,-31.09 571.05,-34.91 605.45,-39.37 634.45,-43.19"/>
<polygon fill="#913107" fill-opacity="0.698039" stroke="#913107" stroke-width="2" stroke-opacity="0.698039" points="633.98,-46.66 644.36,-44.5 634.9,-39.72 633.98,-46.66"/>
</g>
<!-- sandbox/di/service1&#45;&gt;sandbox/di/service2 -->
<g id="edge4" class="edge">
<title>sandbox/di/service1:e&#45;&gt;sandbox/di/service2</title>
<path fill="none" stroke="#07914d" stroke-width="2" stroke-opacity="0.698039" d="M324,-33.09C358.66,-33.09 396.19,-42.31 426.29,-52.12"/>
<polygon fill="#07914d" fill-opacity="0.698039" stroke="#07914d" stroke-width="2" stroke-opacity="0.698039" points="424.82,-55.31 435.42,-55.21 427.07,-48.68 424.82,-55.31"/>
</g>
<!-- sandbox/di/service1&#45;&gt;sandbox/di/service3 -->
<g id="edge5" class="edge">
<title>sandbox/di/service1:e&#45;&gt;sandbox/di/service3</title>
<path fill="none" stroke="#913107" stroke-width="2" stroke-opacity="0.698039" d="M324,-33.09C432.88,-33.09 559.22,-41.09 634.5,-46.71"/>
<polygon fill="#913107" fill-opacity="0.698039" stroke="#913107" stroke-width="2" stroke-opacity="0.698039" points="633.79,-50.16 644.02,-47.43 634.31,-43.18 633.79,-50.16"/>
</g>
<!-- sandbox/di/service2&#45;&gt;sandbox/di/service3 -->
<g id="edge6" class="edge">
<title>sandbox/di/service2:e&#45;&gt;sandbox/di/service3</title>
<path fill="none" stroke="#913107" stroke-width="2" stroke-opacity="0.698039" d="M540,-75.09C571.36,-75.09 605.81,-70.76 634.77,-65.86"/>
<polygon fill="#913107" fill-opacity="0.698039" stroke="#913107" stroke-width="2" stroke-opacity="0.698039" points="635.02,-69.37 644.26,-64.18 633.8,-62.47 635.02,-69.37"/>
</g>
<!-- sandbox/di/service3&#45;&gt;sandbox/di/service2 -->
<g id="edge7" class="edge">
<title>sandbox/di/service3:e&#45;&gt;sandbox/di/service2</title>
<path fill="none" stroke="#7c0791" stroke-width="2" stroke-dasharray="1,5" stroke-opacity="0.698039" d="M757,-52.09C765.01,-52.09 761.77,-64.53 756,-70.09 703.33,-120.85 614.43,-111.38 553.34,-96.37"/>
<polygon fill="#7c0791" fill-opacity="0.698039" stroke="#7c0791" stroke-width="2" stroke-opacity="0.698039" points="554.24,-92.98 543.68,-93.86 552.48,-99.76 554.24,-92.98"/>
</g>
</g>
</svg>
